<?xml version="1.0" encoding="UTF-8" standalone="no"?><!DOCTYPE svg PUBLIC "-//W3C//DTD SVG 1.1//EN" "http://www.w3.org/Graphics/SVG/1.1/DTD/svg11.dtd"><svg width="100%" height="100%" viewBox="0 0 1058 256" version="1.1" xmlns="http://www.w3.org/2000/svg" xmlns:xlink="http://www.w3.org/1999/xlink" xml:space="preserve" xmlns:serif="http://www.serif.com/" style="fill-rule:evenodd;clip-rule:evenodd;stroke-linejoin:round;stroke-miterlimit:2;"><g><path d="M48.393,133.904c22.498,20.547 56.874,46.544 106.383,71.32c38.035,19.034 19.457,41.11 -6.663,44.77c-56.084,-5.41 -99.97,-52.049 -99.97,-108.704c-0,-2.484 0.084,-4.948 0.25,-7.386Zm241.322,54.276c34.681,41.604 -1.802,54.688 -57.866,33.74c-35.608,-12.503 -121.321,-47.04 -181.881,-104.456c-4.165,-3.949 -29.595,-28.152 -33.569,-45.137c-1.866,-7.978 -0.228,-15.144 6.931,-18.116c10.504,-4.363 30.018,-1.339 28.708,-1.315c-17.355,0.313 -19.895,11.296 -14.649,23.6c4.441,10.418 14.405,21.313 19.045,25.102c0,-0 13.722,-30.944 39.938,-49.909c21.339,-15.437 46.95,-19.628 62.663,-19.628c61.202,0 110.891,48.944 110.891,109.229c0,10.157 -1.41,19.992 -4.048,29.322c-8.01,15.609 -22.23,24.976 -46.537,19.706c-30.801,-6.678 -69.47,-27.97 -69.47,-27.97c-0,0 160.338,99.272 139.844,25.832Z" style="fill:#fff;"/><circle cx="18.098" cy="128.812" r="18.098" style="fill:#fff;"/><circle cx="69.48" cy="18.098" r="18.098" style="fill:#fff;"/><circle cx="290.874" cy="164.438" r="12.385" style="fill:#fff;"/><circle cx="223.594" cy="244.777" r="10.965" style="fill:#fff;"/><circle cx="38.466" cy="209.127" r="9.323" style="fill:#fff;"/></g><text x="376.848px" y="176.53px" style="font-family:'Montserrat-Bold', 'Montserrat';font-weight:700;font-size:125.57px;fill:#fff;">C<tspan x="466.505px " y="176.53px ">o</tspan>loniseIT</text></svg>